<?xml version="1.0" encoding="utf-8"?>
<!-- Generator: Adobe Illustrator 16.0.0, SVG Export Plug-In . SVG Version: 6.00 Build 0)  -->
<!DOCTYPE svg PUBLIC "-//W3C//DTD SVG 1.1//EN" "http://www.w3.org/Graphics/SVG/1.1/DTD/svg11.dtd">
<svg version="1.1" xmlns="http://www.w3.org/2000/svg" xmlns:xlink="http://www.w3.org/1999/xlink" x="0px" y="0px"
	 width="119.547px" height="112.537px" viewBox="0 0 119.547 112.537" enable-background="new 0 0 119.547 112.537"
	 xml:space="preserve">
<g id="Layer_3">
</g>
<g id="Layer_4">
	<g>
		<circle fill="#BE2227" cx="59.773" cy="56.269" r="52"/>
		<g>
			<path fill="#F1F2F2" d="M49.435,60.729c-0.633,1.898-1.206,3.615-1.719,5.156c-0.514,1.539-0.532,2.309-0.059,2.309
				c0.71,0,1.5-0.236,2.369-0.711c0.868-0.475,1.776-1.105,2.725-1.895c0.947-0.791,1.895-1.658,2.843-2.607
				c0.948-0.947,1.857-1.855,2.726-2.725c0.948-0.869,1.776-1.422,2.488-1.66c0.711-0.236,1.244-0.236,1.6,0
				c0.354,0.238,0.493,0.633,0.414,1.186c-0.08,0.553-0.396,1.186-0.947,1.896c-2.054,2.686-4.147,5.055-6.279,7.107
				c-1.896,1.811-4.009,3.445-6.339,4.902c-2.331,1.457-4.76,2.186-7.286,2.186c-1.815,0-3.06-0.492-3.732-1.477
				c-0.67-0.984-0.967-2.205-0.889-3.662c0.08-1.457,0.396-3.055,0.948-4.791c0.555-1.738,1.146-3.396,1.777-4.977
				c0.632-1.818,1.322-3.811,2.074-5.984c0.75-2.17,1.54-4.383,2.368-6.633c0.828-2.252,1.639-4.502,2.428-6.754
				c0.79-2.252,1.58-4.363,2.372-6.34c1.815-4.502,4.066-7.641,6.752-9.418c2.685-1.777,5.41-1.914,8.176-0.414
				c1.658,0.947,2.566,2.291,2.724,4.027c0.157,1.738-0.375,3.852-1.6,6.34c-1.224,2.488-3.041,5.33-5.449,8.529
				c-2.41,3.201-5.312,6.773-8.707,10.723c-0.396,1.105-0.752,2.152-1.067,3.139C49.829,59.171,49.592,60.021,49.435,60.729z
				 M62.467,30.38c-0.554-0.316-1.127-0.158-1.718,0.475c-0.593,0.631-1.206,1.6-1.837,2.902c-0.632,1.303-1.283,2.902-1.954,4.797
				c-0.672,1.896-1.402,3.988-2.192,6.279c1.184-1.658,2.35-3.297,3.495-4.916s2.093-3.102,2.844-4.443
				c0.75-1.344,1.283-2.469,1.599-3.377S62.94,30.616,62.467,30.38z"/>
			<path fill="#F1F2F2" d="M85.095,60.192c0.631-0.709,1.303-1.201,2.014-1.479s1.303-0.355,1.777-0.238
				c0.474,0.119,0.729,0.436,0.77,0.947c0.04,0.514-0.296,1.244-1.006,2.193c-0.711,0.947-1.798,2.25-3.26,3.908
				c-1.461,1.66-3.159,3.299-5.094,4.918s-4.027,2.982-6.279,4.088c-2.251,1.105-4.443,1.539-6.574,1.303
				c-2.45-0.238-4.405-1.164-5.866-2.785c-1.462-1.619-2.469-3.572-3.021-5.863c-0.552-2.291-0.61-4.76-0.177-7.406
				c0.434-2.645,1.324-5.074,2.666-7.285c1.343-2.211,3.14-4.047,5.392-5.508c2.251-1.463,4.955-2.193,8.114-2.193
				c2.211,0,3.97,0.535,5.272,1.6c1.303,1.066,2.133,2.369,2.488,3.91c0.354,1.539,0.296,3.139-0.179,4.797
				c-0.475,1.66-1.381,3.082-2.724,4.266c-0.949,0.791-1.876,1.125-2.784,1.008c-0.908-0.119-1.68-0.436-2.312-0.949
				c-0.631-0.512-1.085-1.105-1.362-1.777c-0.277-0.67-0.217-1.164,0.179-1.48c1.263-1.105,2.131-2.348,2.605-3.73
				c0.474-1.383,0.276-2.43-0.592-3.141c-0.633-0.475-1.364-0.533-2.192-0.178s-1.618,1.006-2.368,1.955
				c-0.752,0.949-1.462,2.092-2.133,3.436c-0.671,1.342-1.126,2.686-1.362,4.027c-0.475,3.24-0.317,5.787,0.473,7.643
				c0.79,1.857,2.172,2.746,4.147,2.666c1.263,0,2.527-0.277,3.791-0.83c1.263-0.553,2.467-1.264,3.612-2.131
				c1.146-0.869,2.212-1.818,3.2-2.846C83.298,62.011,84.226,61.063,85.095,60.192z"/>
		</g>
	</g>
</g>
</svg>
