<svg xmlns="http://www.w3.org/2000/svg" width="119.547" height="112.537"><circle fill="#BE2227" cx="59.773" cy="56.269" r="52"/><g fill="#F1F2F2"><path d="M49.435 60.729l-1.719 5.156c-.514 1.539-.532 2.309-.059 2.309.71 0 1.5-.236 2.369-.711.868-.475 1.776-1.105 2.725-1.895a42.842 42.842 0 0 0 2.843-2.607l2.726-2.725c.948-.869 1.776-1.422 2.488-1.66.711-.236 1.244-.236 1.6 0 .354.238.493.633.414 1.186-.08.553-.396 1.186-.947 1.896-2.054 2.686-4.147 5.055-6.279 7.107a39.332 39.332 0 0 1-6.339 4.902c-2.331 1.457-4.76 2.186-7.286 2.186-1.815 0-3.06-.492-3.732-1.477-.67-.984-.967-2.205-.889-3.662.08-1.457.396-3.055.948-4.791a74.856 74.856 0 0 1 1.777-4.977c.632-1.818 1.322-3.811 2.074-5.984.75-2.17 1.54-4.383 2.368-6.633a467.862 467.862 0 0 0 2.428-6.754c.79-2.252 1.58-4.363 2.372-6.34 1.815-4.502 4.066-7.641 6.752-9.418 2.685-1.777 5.41-1.914 8.176-.414 1.658.947 2.566 2.291 2.724 4.027.157 1.738-.375 3.852-1.6 6.34-1.224 2.488-3.041 5.33-5.449 8.529-2.41 3.201-5.312 6.773-8.707 10.723a94.556 94.556 0 0 0-1.067 3.139c-.317.99-.554 1.84-.711 2.548zM62.467 30.38c-.554-.316-1.127-.158-1.718.475-.593.631-1.206 1.6-1.837 2.902-.632 1.303-1.283 2.902-1.954 4.797a783.256 783.256 0 0 0-2.192 6.279c1.184-1.658 2.35-3.297 3.495-4.916s2.093-3.102 2.844-4.443c.75-1.344 1.283-2.469 1.599-3.377s.236-1.481-.237-1.717z"/><path d="M85.095 60.192c.631-.709 1.303-1.201 2.014-1.479s1.303-.355 1.777-.238c.474.119.729.436.77.947.04.514-.296 1.244-1.006 2.193-.711.947-1.798 2.25-3.26 3.908-1.461 1.66-3.159 3.299-5.094 4.918s-4.027 2.982-6.279 4.088c-2.251 1.105-4.443 1.539-6.574 1.303-2.45-.238-4.405-1.164-5.866-2.785-1.462-1.619-2.469-3.572-3.021-5.863-.552-2.291-.61-4.76-.177-7.406.434-2.645 1.324-5.074 2.666-7.285 1.343-2.211 3.14-4.047 5.392-5.508 2.251-1.463 4.955-2.193 8.114-2.193 2.211 0 3.97.535 5.272 1.6 1.303 1.066 2.133 2.369 2.488 3.91.354 1.539.296 3.139-.179 4.797-.475 1.66-1.381 3.082-2.724 4.266-.949.791-1.876 1.125-2.784 1.008-.908-.119-1.68-.436-2.312-.949-.631-.512-1.085-1.105-1.362-1.777-.277-.67-.217-1.164.179-1.48 1.263-1.105 2.131-2.348 2.605-3.73.474-1.383.276-2.43-.592-3.141-.633-.475-1.364-.533-2.192-.178s-1.618 1.006-2.368 1.955c-.752.949-1.462 2.092-2.133 3.436-.671 1.342-1.126 2.686-1.362 4.027-.475 3.24-.317 5.787.473 7.643.79 1.857 2.172 2.746 4.147 2.666 1.263 0 2.527-.277 3.791-.83a17.804 17.804 0 0 0 3.612-2.131 27.356 27.356 0 0 0 3.2-2.846 219.427 219.427 0 0 1 2.785-2.846z"/></g></svg>